<?xml version="1.0" standalone="no"?>
<!DOCTYPE svg PUBLIC "-//W3C//DTD SVG 20010904//EN"
 "http://www.w3.org/TR/2001/REC-SVG-20010904/DTD/svg10.dtd">
<svg version="1.0" xmlns="http://www.w3.org/2000/svg"
 width="460.000000pt" height="460.000000pt" viewBox="0 0 460.000000 460.000000"
 preserveAspectRatio="xMidYMid meet">
<metadata>
Created by potrace 1.11, written by Peter Selinger 2001-2013
</metadata>
<g transform="translate(0.000000,460.000000) scale(0.100000,-0.100000)"
fill="#000000" stroke="none">
<path d="M0 2835 l0 -1764 40 39 c22 21 48 40 57 42 25 4 23 -24 -3 -37 -11
-6 -37 -21 -57 -35 l-37 -25 0 -527 0 -528 61 0 c54 0 60 2 54 17 -13 31 -18
63 -9 63 13 0 64 -53 64 -67 0 -7 7 -13 16 -13 9 0 14 3 12 8 -2 4 -18 39 -37
77 -19 39 -35 82 -37 98 -3 23 0 27 21 27 18 0 35 -15 69 -64 26 -35 46 -67
46 -70 0 -4 17 -23 37 -41 48 -44 93 -48 93 -10 0 32 15 32 36 0 13 -20 24
-25 61 -25 47 0 47 0 26 58 -3 6 2 12 12 12 13 0 16 5 10 23 -11 36 -14 97 -4
97 6 0 41 -32 80 -71 60 -59 70 -74 65 -95 l-6 -24 95 0 c86 0 113 8 85 25 -5
3 -10 12 -10 20 0 8 -11 31 -25 51 -30 44 -28 59 9 59 15 1 32 8 37 17 9 16
49 14 49 -3 0 -5 5 -9 11 -9 6 0 8 7 5 15 -3 8 -9 22 -12 31 -5 12 -1 15 17
14 13 -1 38 -2 54 -1 l30 2 -28 24 c-22 20 -36 24 -65 20 -105 -13 -132 -14
-137 -5 -6 9 36 15 79 11 10 0 24 3 31 9 10 8 61 18 250 47 31 5 35 8 20 14
-11 4 5 5 35 2 38 -3 51 -2 41 5 -10 7 1 11 40 15 30 3 68 8 84 12 23 5 27 4
15 -5 -13 -9 -5 -19 44 -63 32 -29 118 -109 190 -179 l131 -128 68 0 c37 0 67
2 67 5 0 17 -111 143 -154 175 -28 21 -91 75 -141 120 -49 45 -99 85 -110 90
-14 5 -3 9 40 15 33 4 66 11 72 17 7 6 24 7 38 4 16 -4 25 -2 25 5 0 8 13 10
40 6 23 -3 38 -1 34 4 -3 5 16 9 43 9 30 0 60 7 81 20 18 11 49 20 70 20 21 0
47 7 59 15 12 8 29 12 37 9 9 -3 22 -2 29 4 6 6 28 13 48 17 26 5 39 2 49 -10
12 -14 12 -18 -1 -26 -8 -5 -27 -9 -43 -9 -28 0 -28 0 -12 -25 9 -13 16 -38
16 -56 0 -26 -3 -30 -17 -24 -35 15 -63 17 -63 6 0 -6 6 -11 14 -11 7 0 20 -9
27 -20 18 -26 123 -47 145 -29 14 12 82 8 117 -6 38 -16 15 27 -45 85 l-62 59
27 12 c35 16 34 24 -3 46 -53 31 -36 44 95 73 22 5 73 17 113 26 69 15 74 15
137 -5 71 -23 111 -28 85 -11 -8 6 -39 17 -67 26 -80 23 -73 38 23 48 58 6 61
6 72 -19 7 -14 20 -29 29 -33 10 -4 36 -19 58 -34 22 -15 58 -30 80 -33 40 -7
40 -7 20 12 -11 11 -39 27 -62 36 -23 9 -52 25 -63 34 -12 10 -31 26 -42 36
-37 31 -11 30 54 -1 87 -41 188 -76 188 -63 0 4 -18 18 -41 31 -22 14 -53 35
-68 47 -15 12 -42 26 -61 31 -26 8 -29 10 -12 11 12 1 22 6 22 12 0 9 22 20
135 68 32 14 101 31 124 31 17 0 21 -6 21 -29 0 -20 6 -32 18 -35 22 -7 62
-48 66 -67 1 -8 10 -32 19 -53 12 -27 14 -43 7 -51 -21 -25 0 -42 61 -49 71
-8 81 -4 69 29 -8 21 -7 25 10 25 11 0 20 7 20 15 0 8 5 15 12 15 7 0 -3 15
-21 34 -20 20 -29 36 -22 40 12 8 95 -33 130 -63 13 -12 27 -21 32 -21 4 0 25
-15 46 -33 22 -18 59 -41 84 -51 24 -10 56 -25 72 -33 16 -9 27 -10 27 -4 0 6
-5 11 -11 11 -12 0 -38 29 -39 43 0 13 35 8 58 -9 13 -9 29 -14 35 -11 28 11
127 -53 127 -81 0 -18 67 -42 117 -42 53 0 236 -67 233 -85 0 -6 -19 -9 -42
-7 -38 2 -40 1 -27 -14 47 -58 98 -95 167 -124 42 -17 89 -38 104 -46 14 -8
31 -14 38 -14 6 0 36 -11 66 -25 30 -14 57 -25 60 -25 2 0 3 52 2 117 l-3 116
-205 89 c-476 207 -904 389 -993 422 -53 20 -129 41 -168 46 -40 6 -75 13 -78
16 -9 9 67 71 96 79 14 3 48 23 77 44 28 20 75 50 103 66 29 15 53 34 53 42 0
7 5 13 11 13 6 0 38 29 71 65 49 52 67 65 92 66 17 0 25 3 19 6 -20 7 -15 25
15 60 15 17 44 52 65 77 44 54 65 59 63 16 -1 -17 -7 -30 -13 -30 -7 0 -13 -5
-13 -11 0 -7 14 -9 37 -6 20 3 56 -1 79 -9 22 -7 90 -16 150 -18 130 -5 174
-18 166 -48 -2 -11 1 -24 8 -28 7 -5 -19 -8 -59 -8 -68 1 -92 -5 -79 -18 3 -3
41 -8 83 -11 56 -4 79 -3 85 7 6 9 13 9 28 1 29 -16 52 -14 52 4 0 13 14 15
88 11 48 -3 103 -10 122 -16 48 -14 52 -13 48 12 -3 19 -17 26 -109 49 -104
26 -156 46 -146 56 7 6 108 -14 165 -33 23 -8 54 -14 67 -14 24 0 25 3 25 63
l0 62 -193 49 c-257 65 -484 116 -513 116 -30 0 -32 30 -5 68 18 27 49 97 89
202 12 30 26 86 32 124 6 38 13 73 16 77 9 15 115 22 142 10 21 -10 23 -14 11
-22 -21 -13 6 -29 51 -29 19 0 46 -7 60 -15 l25 -13 -30 -8 c-17 -4 -45 -20
-63 -36 -28 -24 -30 -28 -12 -28 26 0 26 -17 -1 -25 -11 -4 -18 -12 -16 -18 5
-15 85 -21 111 -8 12 5 46 12 78 15 31 3 64 9 73 12 26 10 11 28 -31 37 -21 5
-52 15 -69 23 -28 13 -23 14 61 9 97 -5 124 -11 124 -27 0 -13 31 -37 48 -38
9 0 12 27 12 103 0 69 -4 107 -12 116 -10 11 -10 14 0 18 8 3 12 28 12 74 l0
69 -42 0 c-24 0 -95 6 -158 14 -63 8 -160 17 -215 21 -137 9 -135 8 -135 60 0
24 5 47 11 50 6 4 8 13 5 21 -17 44 37 58 89 24 17 -11 44 -20 62 -20 18 0 36
-6 40 -14 11 -19 90 -34 226 -42 l117 -7 0 67 0 67 -47 -6 c-27 -3 -149 3
-273 13 -185 14 -225 20 -225 32 0 11 10 15 35 14 92 -2 477 -26 494 -31 17
-5 18 0 12 83 -12 162 -18 209 -26 218 -5 5 -7 28 -3 51 3 26 1 45 -6 49 -6 4
-11 20 -11 37 l0 29 -292 -2 c-255 -3 -293 -1 -293 12 0 15 143 22 553 29 l82
1 0 575 c0 541 -1 575 -17 576 -30 0 -107 10 -121 15 -21 6 -3 24 24 24 14 0
34 -5 46 -11 11 -6 31 -8 44 -5 l24 6 0 174 0 174 -688 1 c-608 2 -690 0 -702
-14 -16 -19 -40 -19 -40 0 0 13 -47 15 -364 15 -282 0 -366 -3 -370 -12 -5
-10 -7 -10 -12 0 -4 9 -65 12 -262 11 -233 -1 -253 -2 -217 -15 22 -7 48 -11
57 -8 9 3 25 1 35 -5 10 -5 52 -15 93 -21 41 -7 84 -16 95 -21 11 -5 38 -13
60 -18 22 -5 54 -14 70 -20 86 -29 192 -61 205 -61 9 0 65 -20 124 -45 60 -25
114 -45 120 -45 6 0 45 -18 86 -40 41 -22 87 -40 103 -40 15 0 27 -6 27 -13 0
-7 48 -46 108 -87 165 -113 322 -257 322 -296 0 -12 7 -28 16 -35 9 -8 27 -30
40 -51 13 -20 32 -45 43 -55 27 -26 175 -251 209 -320 44 -88 100 -224 107
-263 7 -35 7 -35 -13 -16 -12 10 -24 28 -28 40 -4 11 -10 23 -13 26 -3 3 -21
34 -39 70 -19 36 -49 92 -67 125 -19 33 -37 67 -41 75 -4 8 -15 26 -24 40 -9
14 -30 45 -46 70 -16 25 -36 54 -46 65 -9 11 -40 49 -69 85 -107 135 -298 315
-420 398 -125 85 -325 181 -459 221 -111 33 -324 106 -425 145 -77 30 -180 58
-333 90 l-122 26 -860 0 -860 0 0 -1765z m2130 1745 c0 -5 -2 -10 -4 -10 -3 0
-8 5 -11 10 -3 6 -1 10 4 10 6 0 11 -4 11 -10z m2330 -35 c0 -8 -4 -15 -9 -15
-13 0 -22 16 -14 24 11 11 23 6 23 -9z m-1838 -57 c-7 -7 -12 -8 -12 -2 0 6 3
14 7 17 3 4 9 5 12 2 2 -3 -1 -11 -7 -17z m718 -12 c0 -15 -24 -28 -34 -19
-13 14 -5 33 14 33 11 0 20 -6 20 -14z m1210 -7 c0 -14 -40 -31 -58 -24 -15 6
-14 9 6 25 22 18 52 18 52 -1z m-777 4 c3 -5 1 -18 -4 -30 -6 -17 -16 -23 -38
-23 -16 0 -33 -5 -36 -10 -4 -7 -13 -7 -26 0 -18 10 -18 12 -3 36 10 14 22 23
29 20 6 -2 18 0 26 5 17 11 46 12 52 2z m687 -13 c0 -26 -22 -35 -49 -20 -34
18 -26 40 14 40 29 0 35 -4 35 -20z m-862 -43 c3 -30 0 -37 -15 -37 -16 0 -18
6 -15 40 5 51 26 48 30 -3z m212 -15 c0 -14 -48 -33 -55 -22 -4 6 -3 15 0 20
7 12 55 13 55 2z m570 -45 c0 -8 9 -22 21 -33 19 -17 19 -19 3 -31 -17 -12
-60 -8 -77 7 -5 4 3 10 17 14 31 8 35 26 6 26 -20 0 -26 11 -13 23 12 12 43 7
43 -6z m-670 -47 c0 -5 16 -26 35 -46 35 -35 45 -67 25 -79 -6 -3 -8 -16 -5
-28 5 -19 -1 -25 -40 -41 -31 -12 -50 -15 -56 -9 -11 11 -14 71 -8 161 3 47 5
52 26 52 13 0 23 -4 23 -10z m-1702 -205 c36 -39 68 -50 114 -41 17 3 36 2 42
-3 6 -5 38 -12 71 -15 33 -2 61 -5 63 -5 1 -1 2 -11 3 -23 0 -13 3 -17 6 -10
2 6 20 12 39 12 30 0 34 -3 34 -25 0 -14 5 -25 12 -25 6 0 20 -8 30 -17 13
-12 22 -13 29 -6 8 8 3 15 -17 24 -38 19 -45 43 -10 37 14 -3 26 -1 26 3 0 16
54 8 85 -12 17 -10 41 -24 55 -31 14 -7 43 -26 65 -43 22 -17 56 -39 75 -49
19 -11 37 -22 40 -25 3 -3 23 -12 45 -20 42 -15 146 -82 199 -129 44 -39 156
-171 169 -199 5 -13 14 -23 19 -23 4 0 16 -16 25 -35 12 -26 14 -38 6 -46 -20
-20 62 -130 85 -115 15 9 42 -28 82 -112 23 -51 25 -78 6 -85 -10 -4 -13 -22
-12 -60 2 -66 18 -90 56 -82 26 6 29 3 44 -41 9 -26 16 -72 16 -101 0 -30 5
-63 11 -74 20 -39 20 -155 0 -203 -11 -24 -24 -47 -31 -51 -19 -12 -39 15 -46
63 -13 97 -34 165 -60 203 -22 32 -26 46 -21 81 2 24 8 51 12 61 6 15 3 18
-21 15 -22 -2 -29 2 -34 22 -5 22 -11 24 -42 22 -25 -2 -37 1 -42 13 -3 9 -2
14 2 11 4 -2 14 -1 22 4 8 5 22 5 32 -1 16 -9 18 -5 18 36 0 26 -4 55 -10 65
-11 20 -74 45 -105 42 -16 -2 -24 8 -37 45 -27 77 -63 104 -149 113 -40 5 -88
6 -106 3 -19 -3 -39 0 -48 7 -24 20 -87 13 -237 -28 -39 -10 -78 -48 -78 -76
0 -26 -21 -36 -147 -66 -40 -10 -42 -13 -37 -39 4 -20 1 -30 -10 -34 -10 -4
-16 -18 -16 -39 0 -48 -12 -62 -33 -38 -9 11 -25 20 -36 20 -21 0 -117 -76
-114 -90 2 -5 -4 -7 -12 -4 -10 4 -15 21 -15 53 0 59 -12 80 -34 62 -13 -11
-16 -11 -16 2 0 29 20 69 33 64 6 -2 15 -17 18 -33 6 -28 7 -28 8 7 1 38 18
54 42 38 10 -6 10 -9 2 -9 -7 0 -13 -9 -13 -20 0 -25 3 -25 34 3 15 14 22 27
16 33 -10 10 -2 64 10 64 5 0 29 29 54 65 26 35 56 71 68 80 13 8 19 15 15 15
-4 0 0 16 8 36 18 45 18 45 1 38 -8 -3 -20 3 -27 14 -7 11 -19 18 -26 15 -8
-3 -13 3 -13 16 0 12 -5 21 -12 21 -6 0 -3 9 7 20 15 16 16 23 6 33 -10 9 -15
9 -24 -4 -8 -10 -19 -13 -32 -9 -11 4 -30 10 -42 15 -31 10 -40 45 -18 61 17
12 17 14 2 20 -10 3 -17 11 -17 18 0 17 -39 38 -60 31 -10 -3 -21 -2 -24 4 -7
11 82 19 93 8 4 -4 27 -11 51 -15 47 -8 47 -9 -5 -48 -18 -13 -16 -14 28 -8
37 5 47 3 47 -8 0 -13 7 -13 57 0 31 8 74 25 95 38 20 13 43 24 50 24 7 0 30
18 51 39 27 28 50 41 78 46 21 4 39 11 39 16 0 6 -6 9 -12 8 -28 -3 -40 2 -35
15 4 9 -9 27 -33 47 -22 18 -36 38 -33 45 3 9 -2 14 -13 15 -18 0 -17 1 1 9
32 14 45 11 45 -9 0 -20 77 -91 98 -91 6 0 17 -8 24 -18 14 -18 89 -70 109
-74 6 -2 13 17 15 47 4 48 3 52 -28 75 -57 43 -82 53 -130 53 -32 -1 -49 4
-52 14 -3 8 -10 12 -15 9 -5 -3 -11 1 -14 9 -3 7 -23 17 -44 21 -21 3 -48 16
-60 27 -27 24 -31 17 -6 -9 16 -15 16 -17 -1 -29 -12 -9 -27 -11 -49 -4 -47
13 -71 11 -93 -8 -10 -10 -31 -24 -46 -32 -24 -12 -31 -12 -64 4 -20 9 -55 17
-76 17 -32 -1 -39 2 -34 15 10 25 -4 53 -32 66 l-27 11 35 4 c37 4 73 29 64
43 -3 5 -18 9 -35 9 -29 0 -35 -2 -96 -34 -17 -9 -40 -16 -50 -16 -10 0 -29
-7 -42 -16 -19 -14 -27 -14 -47 -4 -13 8 -24 19 -24 25 0 12 53 55 69 55 14 0
71 34 71 43 0 11 -68 9 -75 -3 -7 -12 -25 -13 -42 -2 -10 6 -10 15 -1 40 11
28 17 32 49 32 28 0 42 -7 67 -35z m102 -290 c0 -8 -9 -20 -20 -27 -11 -7 -20
-18 -20 -25 0 -7 -5 -13 -11 -13 -13 0 -33 -21 -36 -38 -2 -6 2 -12 7 -12 14
0 12 -27 -2 -33 -7 -3 -3 -6 9 -6 12 -1 24 -5 28 -10 3 -5 -8 -9 -25 -9 -16 1
-30 5 -30 10 0 12 -54 10 -68 -4 -16 -16 -19 -11 -27 48 -8 65 8 86 59 74 31
-7 38 -4 67 26 34 35 69 45 69 19z m75 -15 c-3 -5 -18 -10 -33 -9 -24 0 -25 1
-7 9 28 12 47 12 40 0z m35 -20 c0 -6 -10 -14 -22 -19 -13 -5 -31 -18 -42 -30
-10 -11 -23 -18 -27 -15 -15 9 -10 22 9 27 12 3 9 5 -8 6 -22 1 -21 4 15 20
45 22 75 26 75 11z m2055 -20 c4 -6 -7 -10 -24 -10 -17 0 -31 5 -31 10 0 6 11
10 24 10 14 0 28 -4 31 -10z m-1665 -19 c0 -5 -7 -12 -16 -15 -14 -5 -15 -4
-4 9 14 17 20 19 20 6z m1298 -13 c-7 -20 -48 -23 -48 -4 0 11 9 16 26 16 16
0 24 -5 22 -12z m521 -89 c18 -40 11 -44 -33 -18 -36 21 -42 30 -29 42 17 18
49 5 62 -24z m-2451 -16 c-10 -2 -21 -16 -24 -29 -5 -18 -10 -22 -17 -15 -7 7
-7 14 1 24 7 8 9 17 5 20 -3 4 7 6 23 6 17 -1 22 -3 12 -6z m2585 -218 c-4
-15 -36 -12 -41 3 -3 9 3 13 19 10 13 -1 23 -7 22 -13z m-2658 -85 c3 -5 -3
-10 -15 -10 -14 0 -26 -11 -35 -32 -12 -28 -14 -29 -15 -10 0 45 46 83 65 52z
m1415 -11 c0 -5 -4 -9 -10 -9 -5 0 -10 7 -10 16 0 8 5 12 10 9 6 -3 10 -10 10
-16z m-2780 -66 c14 -3 32 -7 40 -8 79 -10 230 -51 235 -63 3 -8 1 -31 -5 -51
-7 -29 -19 -42 -47 -57 -21 -10 -39 -22 -41 -26 -6 -13 -22 -9 -22 6 0 18 -92
116 -110 116 -7 0 -33 17 -58 37 -25 20 -66 43 -91 50 l-46 13 60 -6 c33 -3
71 -8 85 -11z m1427 -24 c7 -17 16 -28 21 -25 6 3 15 -1 22 -9 7 -8 9 -15 4
-16 -76 -6 -88 -22 -90 -117 -2 -81 2 -112 16 -112 4 0 11 11 14 25 8 33 32
32 43 -2 14 -41 5 -63 -23 -63 -15 0 -24 -6 -24 -15 0 -20 -17 -19 -29 3 -10
16 -12 16 -26 -2 -27 -35 -119 -225 -112 -232 4 -4 15 11 25 34 9 23 21 42 26
42 4 0 6 -6 3 -13 -2 -7 -10 -39 -17 -72 -7 -33 -17 -66 -22 -72 -6 -7 -8 -18
-6 -25 9 -23 -9 -143 -27 -191 -11 -30 -24 -47 -34 -47 -13 0 -16 -8 -13 -38
5 -50 -7 -58 -98 -67 -126 -11 -215 0 -260 34 l-24 19 39 45 c22 25 49 48 60
52 12 3 21 15 22 26 1 10 18 45 38 76 20 32 42 67 48 78 7 11 18 24 25 28 16
11 15 27 -2 27 -8 0 -16 -10 -20 -22 -6 -26 -109 -138 -126 -138 -14 0 19 60
37 67 6 3 15 18 18 34 4 16 17 37 31 48 13 10 24 23 24 28 0 5 23 32 50 60 53
55 59 76 35 124 -19 35 -13 49 16 42 16 -4 20 -2 17 8 -3 8 -13 14 -23 14 -10
0 -20 7 -23 15 -2 8 -10 29 -18 47 -14 30 -16 31 -45 21 -22 -7 -27 -14 -20
-21 16 -16 14 -27 -5 -27 -9 0 -14 -6 -11 -12 9 -25 -11 -44 -42 -42 -28 2
-31 -1 -31 -26 0 -15 -9 -39 -20 -52 -10 -14 -17 -27 -15 -29 2 -3 -7 -42 -21
-89 -13 -46 -24 -93 -24 -105 0 -11 -9 -26 -20 -33 -20 -12 -34 -38 -46 -86
-9 -37 27 -28 49 12 24 43 40 42 31 -4 -6 -34 -5 -36 15 -29 11 3 21 3 21 -1
0 -18 -57 -94 -82 -109 -28 -16 -28 -16 -28 11 0 26 0 26 -25 10 -14 -9 -25
-12 -25 -7 0 5 6 11 13 14 9 3 9 9 1 24 -7 11 -10 33 -7 49 5 24 3 27 -8 17
-10 -10 -12 -55 -9 -200 4 -183 4 -264 0 -330 -1 -18 8 -48 21 -71 29 -47 103
-132 117 -132 5 0 15 -7 23 -16 11 -13 5 -23 -40 -66 l-52 -51 -29 22 -30 22
-9 -23 c-5 -13 -18 -31 -30 -42 -20 -18 -20 -18 -11 14 5 18 7 37 4 42 -3 5 0
7 7 6 18 -4 23 29 6 46 -19 19 -33 397 -15 425 6 10 8 27 4 37 -6 16 -10 12
-25 -21 l-18 -40 -7 42 c-4 24 -17 61 -27 84 -14 27 -18 50 -14 70 5 22 0 41
-20 75 -29 49 -28 92 3 127 22 25 39 21 50 -10 9 -24 11 -16 11 45 1 42 -3 72
-9 72 -5 0 -10 5 -10 11 0 5 5 7 11 4 5 -4 19 1 30 11 17 15 19 31 19 126 0
65 -4 108 -10 108 -5 0 -10 7 -10 15 0 8 -5 15 -11 15 -7 0 -9 29 -7 84 2 65
0 82 -9 74 -7 -5 -17 -7 -23 -3 -6 4 -10 3 -9 -2 2 -4 -1 -29 -5 -56 -5 -28
-4 -52 1 -60 26 -33 42 -167 23 -197 -7 -11 -11 -9 -19 12 -5 14 -20 33 -33
42 -12 9 -19 16 -15 16 4 0 -2 18 -13 40 -11 22 -17 40 -13 40 3 0 -3 10 -15
23 -11 12 -28 39 -36 59 -9 20 -25 43 -36 51 -19 13 -19 14 -2 30 10 9 47 22
83 27 138 23 155 27 177 39 30 16 105 -6 168 -50 59 -40 112 -40 142 1 25 33
55 38 86 15 11 -8 30 -15 42 -15 12 0 35 -11 51 -24 45 -37 93 -42 150 -15 26
12 49 23 50 24 3 2 -44 185 -54 211 -4 11 -3 15 5 10 6 -3 18 -32 27 -63 14
-46 19 -54 26 -40 6 9 9 23 8 29 -3 13 8 89 17 120 7 24 28 13 41 -23z m793
-4 c-27 -14 -36 -13 -25 4 3 6 16 11 28 11 21 -1 21 -1 -3 -15z m1790 0 c0 -8
-6 -15 -14 -15 -17 0 -28 14 -19 24 12 12 33 6 33 -9z m-70 -31 c0 -17 -22
-14 -28 4 -2 7 3 12 12 12 9 0 16 -7 16 -16z m-1465 -5 c6 -1 17 2 25 5 24 10
54 -17 46 -41 -6 -18 -14 -20 -69 -18 -34 1 -83 3 -109 4 -35 1 -48 5 -48 16
0 22 -17 18 -23 -5 -7 -29 -23 -25 -41 12 -9 17 -16 33 -16 35 0 3 198 -4 235
-8z m965 -21 c0 -16 -3 -19 -11 -11 -6 6 -8 16 -5 22 11 17 16 13 16 -11z
m-1370 -65 c0 -25 -19 -92 -36 -130 -14 -32 -17 -33 -74 -33 -49 0 -59 -3 -59
-17 0 -34 -18 -89 -24 -73 -18 48 -25 120 -15 156 12 46 14 48 98 74 36 11 72
24 80 30 22 14 30 12 30 -7z m403 -124 c73 -11 122 -28 83 -29 -15 0 -16 -3
-6 -15 10 -12 9 -15 -6 -16 -14 -1 -13 -3 5 -8 43 -12 37 -31 -11 -31 -80 0
-156 -30 -229 -91 -28 -23 -50 -34 -55 -29 -11 11 -70 -41 -102 -90 -16 -25
-22 -29 -20 -15 3 41 -2 85 -10 85 -5 0 -15 -18 -22 -40 -7 -22 -15 -38 -18
-35 -3 3 7 34 23 71 26 60 27 67 12 82 -15 15 -19 13 -52 -24 -19 -21 -53 -73
-74 -114 -56 -109 -76 -127 -139 -136 -50 -6 -53 -9 -52 -33 3 -40 1 -46 -21
-70 -13 -14 -29 -21 -41 -18 -15 4 -17 2 -8 -8 11 -13 129 -50 136 -42 7 7 86
-13 102 -25 10 -9 10 -13 1 -19 -17 -10 11 -37 45 -43 14 -2 30 -7 36 -11 16
-10 12 11 -5 25 -19 15 -14 23 9 14 9 -3 16 -14 16 -25 0 -19 54 -40 112 -41
16 -1 32 -6 36 -13 4 -6 30 -22 57 -35 28 -13 75 -47 105 -76 32 -30 83 -64
123 -82 37 -17 70 -38 73 -47 4 -11 -5 -28 -27 -51 -30 -31 -38 -34 -93 -34
-33 0 -85 5 -117 12 -49 10 -59 16 -70 42 -17 37 -39 44 -147 45 -59 1 -90 6
-108 18 -25 16 -68 19 -134 8 -31 -5 -36 -3 -37 16 -3 32 -32 59 -66 59 -41 0
-193 48 -207 65 -7 8 -21 15 -31 15 -36 0 -8 69 99 240 59 95 66 110 68 164 1
37 -3 71 -12 88 -8 15 -14 31 -14 35 0 9 66 83 74 83 4 0 6 -26 6 -57 l0 -58
24 26 c14 15 44 36 69 48 33 16 51 34 71 71 15 28 36 55 47 60 11 6 17 15 14
21 -9 13 7 11 50 -7 40 -16 39 -17 105 36 14 11 41 22 60 26 l35 6 -40 -36
c-21 -19 -36 -38 -33 -41 6 -6 57 21 68 36 12 16 108 50 163 58 5 0 41 -4 80
-10z m-738 -29 c3 -5 19 -10 36 -10 16 0 29 -4 29 -10 0 -5 -11 -10 -24 -10
-18 0 -25 -7 -30 -31 -6 -30 -58 -89 -78 -89 -15 0 -3 92 17 129 15 31 38 40
50 21z m-1435 -11 c0 -4 -7 -12 -15 -19 -8 -7 -12 -16 -9 -22 3 -5 12 -4 20 3
11 9 14 8 14 -5 0 -9 8 -16 19 -16 30 0 83 -61 76 -88 -4 -16 -2 -22 7 -20 16
4 58 -37 58 -56 0 -8 4 -17 9 -20 5 -3 11 -19 13 -35 4 -29 3 -30 -32 -28 -30
1 -39 6 -49 28 -6 14 -9 33 -5 42 4 11 1 14 -13 11 -11 -3 -26 3 -37 15 -11
12 -24 21 -29 21 -6 0 -3 -8 6 -18 10 -10 17 -25 17 -33 0 -8 13 -26 29 -42
19 -18 32 -46 40 -85 7 -31 15 -65 17 -74 4 -12 -2 -17 -23 -20 l-28 -3 23
-20 c22 -19 30 -45 14 -45 -5 0 -21 14 -37 30 -22 23 -26 33 -17 39 9 6 8 13
-7 30 -19 22 -19 25 -4 63 12 29 13 42 4 51 -8 8 -11 7 -11 -5 0 -9 -12 -27
-27 -40 -25 -20 -28 -30 -28 -85 0 -78 -19 -105 -56 -79 -13 9 -30 16 -39 15
-10 0 -11 -2 -2 -6 21 -8 13 -23 -12 -23 -31 0 -37 9 -38 65 -1 50 -12 59 -22
19 -7 -26 -33 -60 -41 -53 -8 8 27 135 42 151 8 9 12 21 9 27 -4 5 -2 12 3 15
4 3 11 20 15 37 3 18 18 48 32 67 l26 34 -31 -16 c-22 -12 -31 -24 -31 -41 0
-28 -30 -95 -42 -95 -4 0 -8 -10 -9 -22 0 -29 -58 -170 -58 -145 -1 35 41 155
80 228 10 20 19 45 19 55 -1 18 -1 18 -15 0 -8 -11 -15 -26 -15 -33 0 -7 -12
-32 -26 -54 -14 -23 -33 -65 -41 -93 -8 -28 -18 -55 -23 -61 -4 -5 -10 -23
-14 -40 -26 -129 -26 -128 -10 -187 10 -35 24 -63 36 -69 12 -7 17 -17 13 -29
-3 -10 -1 -21 5 -25 17 -10 11 -100 -9 -147 -16 -37 -25 -46 -60 -57 -23 -6
-39 -16 -36 -22 9 -13 -43 -31 -62 -20 -13 7 -12 11 8 25 13 9 29 16 36 16 9
0 10 7 3 26 -6 15 -7 31 -2 38 5 6 10 33 11 60 1 28 4 53 7 58 10 16 -20 119
-38 132 -16 12 -17 15 -3 26 9 7 15 29 15 51 0 22 4 47 9 57 6 9 20 46 31 82
12 36 30 79 40 95 10 17 40 72 67 124 30 58 60 103 80 119 25 18 33 32 33 56
0 24 9 39 37 63 33 28 83 41 83 22z m73 -5 c-5 -13 -2 -15 18 -9 22 7 23 7 8
-16 -21 -30 -37 -35 -46 -12 -3 10 -13 22 -22 27 -13 8 -12 10 4 17 33 13 45
10 38 -7z m3020 -81 c15 -29 34 -84 41 -122 12 -61 11 -73 -3 -103 l-16 -33
-3 28 c-3 25 -7 28 -30 22 l-27 -5 -3 72 c-2 40 -10 97 -18 125 -26 91 13 101
59 16z m-1843 -7 c0 -3 -4 -8 -10 -11 -5 -3 -10 -1 -10 4 0 6 5 11 10 11 6 0
10 -2 10 -4z m2299 -60 c9 -10 8 -16 -4 -26 -9 -8 -13 -21 -9 -36 7 -29 -2
-45 -22 -37 -11 4 -14 14 -11 32 3 15 -1 34 -9 45 -8 11 -14 23 -14 28 0 14
57 9 69 -6z m-2318 -16 l29 0 -4 -81 c-3 -66 -9 -87 -27 -113 -21 -28 -24 -44
-27 -148 -2 -65 -7 -118 -12 -118 -19 0 -37 99 -35 200 3 168 15 272 32 266 8
-4 28 -6 44 -6z m-527 -52 c-1 -24 -7 -43 -13 -42 -6 1 -16 2 -21 3 -14 1 -2
73 13 83 18 11 23 1 21 -44z m1818 -59 c19 -38 22 -59 9 -59 -5 0 -23 27 -40
61 -28 57 -29 60 -8 47 12 -8 30 -30 39 -49z m-747 -112 c0 -80 4 -112 19
-145 11 -23 17 -45 14 -47 -12 -12 -51 94 -55 150 -4 48 9 145 20 145 1 0 2
-46 2 -103z m776 -45 c1 -148 2 -152 19 -109 8 20 9 20 9 2 1 -30 -53 -119
-91 -149 -18 -14 -38 -31 -45 -36 -21 -17 -157 -58 -173 -51 -11 4 -8 7 8 9
21 3 22 5 7 16 -15 10 -9 15 41 32 43 14 74 35 121 79 57 55 80 95 53 95 -12
0 -3 48 12 67 6 7 10 36 10 65 -1 56 4 72 19 62 5 -3 10 -40 10 -82z m-1241
14 c0 -24 -16 -43 -27 -32 -8 8 6 56 17 56 6 0 10 -11 10 -24z m-1109 -25
c-30 -30 -39 -26 -11 4 13 14 25 23 28 21 2 -2 -6 -14 -17 -25z m399 20 c0
-13 -31 -43 -38 -37 -3 3 3 15 13 26 20 22 25 24 25 11z m-550 -41 c0 -6 9
-20 20 -32 27 -29 25 -71 -5 -103 l-24 -27 6 39 c6 34 5 37 -9 25 -23 -18 -28
-3 -21 57 4 33 10 51 19 51 8 0 14 -5 14 -10z m1598 -22 c-4 -44 -25 -47 -30
-3 -3 29 -1 35 15 35 15 0 18 -6 15 -32z m1012 -83 c-35 -26 -55 -31 -64 -16
-11 17 29 37 78 40 15 1 12 -5 -14 -24z m-2910 5 c0 -5 -4 -10 -10 -10 -5 0
-10 5 -10 10 0 6 5 10 10 10 6 0 10 -4 10 -10z m50 0 c0 -5 -5 -10 -11 -10 -5
0 -7 5 -4 10 3 6 8 10 11 10 2 0 4 -4 4 -10z m2640 -29 c-10 -15 -25 -33 -33
-39 -25 -21 -83 -41 -96 -33 -9 6 7 23 54 59 73 55 110 61 75 13z m-2460 14
c19 -22 11 -24 -50 -13 -84 15 -95 27 -24 28 43 0 65 -5 74 -15z m1737 -21
c-3 -3 -12 -4 -19 -1 -8 3 -5 6 6 6 11 1 17 -2 13 -5z m297 -20 c10 -26 -4
-37 -25 -18 -10 9 -16 21 -13 25 9 15 31 10 38 -7z m584 -2 c24 -16 26 -75 2
-105 -12 -15 -26 -27 -31 -27 -14 0 -11 48 6 81 14 26 14 30 0 35 -8 3 -15 10
-15 15 0 11 21 11 38 1z m-2845 -39 c6 -32 1 -43 -19 -43 -9 0 -14 11 -14 35
0 43 25 48 33 8z m56 10 c8 -15 12 -16 34 -4 18 9 42 11 86 6 70 -8 77 -15 89
-96 4 -30 13 -54 21 -57 11 -4 13 6 7 55 -7 67 -1 81 26 56 11 -9 18 -11 18
-5 0 24 18 11 35 -25 20 -41 24 -111 8 -121 -9 -6 -33 -151 -33 -196 0 -4 -16
-5 -36 -1 -22 4 -34 3 -30 -3 3 -5 -2 -9 -12 -8 -11 1 -16 -5 -14 -16 2 -12
-4 -18 -16 -18 -23 0 -66 -35 -58 -48 3 -5 30 -14 61 -21 63 -14 67 -24 33
-89 -25 -47 -43 -57 -103 -57 -33 0 -40 -3 -40 -20 0 -16 8 -21 38 -23 46 -4
47 -14 7 -89 -16 -31 -30 -61 -30 -68 0 -13 -62 -45 -90 -45 -10 0 -21 -4 -24
-9 -3 -5 -21 -12 -40 -15 -19 -4 -39 -13 -46 -21 -7 -8 -25 -15 -41 -15 -35 0
-46 -16 -16 -24 28 -7 67 0 81 14 11 11 56 14 56 4 0 -4 -10 -23 -22 -45 -20
-36 -23 -38 -72 -38 -28 0 -68 3 -89 6 l-38 5 17 26 c10 16 16 43 16 68 -2 48
13 60 52 42 32 -14 63 -4 47 16 -9 11 -4 23 22 57 27 36 40 45 70 47 42 4 49
19 12 28 -14 3 -29 13 -34 21 -6 12 -13 13 -28 4 -26 -14 -66 -89 -60 -113 4
-13 -2 -20 -19 -24 -14 -4 -28 -4 -31 -1 -10 10 36 112 57 127 11 8 20 18 20
23 0 5 9 22 21 38 19 27 23 29 43 16 15 -10 29 -11 51 -4 39 13 38 10 24 41
-12 26 -33 34 -44 16 -10 -16 -35 -12 -35 6 0 9 12 43 27 75 18 40 33 59 45
59 10 0 18 -4 18 -10 0 -14 43 -13 58 2 7 7 12 25 12 40 0 17 5 28 14 28 7 0
19 7 26 15 10 12 8 20 -10 42 l-22 28 27 11 27 11 -31 13 c-36 15 -62 1 -54
-29 6 -23 -16 -39 -27 -21 -8 13 -4 133 6 159 3 11 12 7 33 -13 l29 -28 12 22
c17 32 -11 60 -58 57 -32 -2 -37 1 -45 31 -9 29 -13 32 -37 27 -23 -5 -29 -2
-34 19 -7 29 2 76 15 76 4 0 12 -8 18 -17z m-226 -8 c-3 -9 -8 -14 -10 -11 -3
3 -2 9 2 15 9 16 15 13 8 -4z m2484 -2 c42 -28 93 -43 146 -43 35 0 47 -4 47
-15 0 -11 -11 -15 -39 -15 -62 0 -191 51 -191 76 0 18 5 18 37 -3z m1336 -22
c60 -5 114 -14 120 -20 6 -6 26 -11 44 -11 37 0 93 -24 93 -40 0 -15 -146 -11
-212 4 -36 9 -87 12 -135 9 -96 -6 -120 6 -103 51 10 26 13 28 48 22 20 -4 86
-11 145 -15z m-3823 -27 c0 -8 -4 -14 -10 -14 -5 0 -10 9 -10 21 0 11 5 17 10
14 6 -3 10 -13 10 -21z m1630 -14 c0 -5 -5 -10 -11 -10 -5 0 -7 5 -4 10 3 6 8
10 11 10 2 0 4 -4 4 -10z m-1402 -32 c16 -16 15 -28 -3 -28 -8 0 -15 2 -15 4
0 2 -3 11 -6 20 -7 19 7 21 24 4z m694 -20 c-7 -7 -12 -8 -12 -2 0 6 3 14 7
17 3 4 9 5 12 2 2 -3 -1 -11 -7 -17z m717 -8 c5 -17 8 -37 5 -45 -3 -7 -1 -22
4 -31 11 -21 95 -44 114 -33 39 25 158 -9 158 -45 0 -23 25 -36 92 -47 34 -6
72 -18 83 -28 15 -13 31 -17 62 -13 43 4 192 -22 225 -39 24 -13 23 -28 -4
-38 -81 -31 -119 -49 -165 -78 -29 -18 -56 -33 -62 -33 -5 0 -11 -5 -13 -10
-2 -6 -37 -16 -77 -23 -41 -7 -76 -18 -79 -25 -2 -7 5 -12 19 -12 12 0 31 -8
42 -17 30 -27 185 -24 251 5 53 24 72 27 81 12 3 -5 -11 -18 -32 -29 -21 -11
-50 -33 -66 -50 -31 -34 -108 -79 -140 -83 -37 -4 -136 24 -154 44 -11 13 -16
35 -16 73 0 40 -4 55 -13 55 -8 0 -14 -9 -14 -20 0 -11 -7 -20 -15 -20 -8 0
-15 5 -15 11 0 15 -132 3 -141 -13 -19 -30 17 -67 96 -97 119 -45 118 -44 45
-52 -97 -12 -167 5 -206 48 -32 35 -36 67 -7 56 12 -5 14 -1 8 16 -5 18 -2 24
14 28 28 7 26 25 -5 40 -22 10 -26 9 -36 -12 -6 -14 -19 -27 -30 -30 -10 -4
-18 -11 -18 -16 0 -5 -9 -9 -21 -9 -11 0 -18 -4 -14 -9 3 -6 -2 -14 -12 -19
-15 -9 -12 -15 25 -53 39 -41 40 -45 22 -53 -11 -5 -20 -18 -20 -30 -1 -27
-23 -56 -44 -56 -9 0 -16 -4 -16 -10 0 -5 5 -10 12 -10 6 0 9 -3 6 -6 -9 -9
-57 26 -70 50 -9 17 -8 19 3 9 40 -38 91 5 69 58 -7 16 -15 29 -18 29 -2 0
-15 -12 -29 -26 -23 -25 -60 -29 -55 -6 1 7 -5 12 -13 12 -18 0 -19 12 -2 29
10 10 9 11 -4 6 -19 -7 -28 4 -45 52 -10 29 -9 34 13 48 19 13 22 19 13 31 -7
7 -10 21 -6 29 4 10 -2 19 -16 24 -18 6 -19 9 -5 14 13 5 14 12 6 39 -5 18
-14 70 -20 116 -11 95 -2 121 56 161 39 27 155 141 155 153 0 21 29 5 39 -22z
m-1642 -2 c-3 -8 -6 -5 -6 6 -1 11 2 17 5 13 3 -3 4 -12 1 -19z m1128 -14
c121 -29 114 -29 124 -3 19 47 11 -8 -13 -87 -22 -75 -34 -130 -41 -191 -1
-15 -11 -32 -21 -38 -9 -5 -36 -27 -58 -47 -62 -58 -69 -51 -36 34 24 63 23
58 5 58 -8 0 -32 -36 -56 -84 -24 -50 -46 -82 -53 -79 -21 9 -69 74 -82 111
-15 44 -5 109 28 182 26 59 47 76 64 52 11 -14 16 -15 33 -4 12 6 28 12 36 12
13 0 14 4 4 23 -6 12 -20 29 -31 37 -26 21 -14 54 16 45 11 -4 48 -13 81 -21z
m-867 -59 c2 -27 -1 -58 -7 -69 -5 -12 -11 -30 -13 -41 -2 -11 -8 -19 -13 -17
-10 2 -9 129 2 165 9 34 28 11 31 -38z m652 20 c0 -8 -2 -15 -4 -15 -2 0 -6 7
-10 15 -3 8 -1 15 4 15 6 0 10 -7 10 -15z m-927 -42 c-5 -54 -10 -63 -33 -63
-24 0 -25 -4 -4 -35 15 -22 15 -25 1 -31 -25 -9 -33 1 -32 43 0 37 52 136 66
127 4 -2 5 -20 2 -41z m627 12 c7 -8 18 -15 24 -15 8 0 10 -13 8 -37 -3 -27 0
-40 14 -50 15 -11 16 -13 2 -13 -9 0 -19 -4 -22 -9 -6 -10 16 -61 27 -61 4 0
7 -4 7 -10 0 -5 -11 -10 -25 -10 -18 0 -28 -7 -36 -27 -5 -14 -8 -32 -5 -39 3
-7 -2 -20 -9 -31 -20 -26 -18 -42 7 -63 l22 -17 -30 -59 c-23 -48 -33 -59 -51
-57 -14 2 -27 -5 -34 -18 -6 -11 -9 -22 -7 -23 2 -1 20 -16 42 -34 31 -27 44
-32 67 -27 16 4 29 3 29 -2 0 -5 -33 -14 -72 -20 -40 -7 -111 -19 -157 -28
-45 -9 -86 -13 -90 -10 -3 4 8 19 25 33 17 15 36 43 43 62 6 19 20 46 31 60
19 24 21 24 34 7 12 -16 14 -16 20 -1 11 27 7 37 -9 24 -12 -10 -15 -9 -15 6
0 31 38 125 60 149 11 12 20 32 20 46 0 13 7 33 15 43 14 19 15 19 15 -7 0
-15 -7 -38 -15 -50 -9 -14 -11 -28 -6 -36 7 -11 11 -9 20 7 6 11 11 29 11 39
0 10 7 27 15 37 19 25 21 66 3 48 -7 -7 -15 -12 -19 -12 -12 0 -16 60 -7 113
5 29 11 63 13 77 2 14 4 26 4 28 2 7 20 0 31 -13z m400 -5 c0 -5 -4 -10 -10
-10 -5 0 -10 5 -10 10 0 6 5 10 10 10 6 0 10 -4 10 -10z m1840 -25 c-7 -9 -15
-13 -19 -10 -3 3 1 10 9 15 21 14 24 12 10 -5z m-2957 -157 c-6 -63 -58 -198
-77 -198 -11 0 0 118 13 134 5 6 12 32 15 58 6 42 24 67 48 68 3 0 4 -28 1
-62z m337 17 c0 -2 -7 -19 -15 -37 -8 -18 -21 -58 -29 -89 -15 -55 -46 -96
-64 -85 -13 8 34 123 64 159 13 16 24 35 24 43 0 8 5 14 10 14 6 0 10 -2 10
-5z m54 -44 c-29 -28 -41 -23 -22 11 17 31 31 40 40 25 3 -6 -4 -22 -18 -36z
m-160 -38 c-9 -21 -21 -51 -26 -68 -6 -16 -21 -41 -34 -56 -13 -14 -24 -34
-24 -45 0 -10 -7 -32 -16 -49 -23 -44 -44 -105 -36 -105 16 0 54 48 80 100 26
53 52 76 52 47 0 -23 -23 -62 -64 -109 -21 -24 -43 -53 -49 -65 -11 -25 -27
-29 -44 -12 -30 30 -101 -65 -106 -140 -2 -25 -6 -29 -29 -29 -15 1 -45 -13
-69 -31 -41 -29 -89 -42 -89 -22 0 11 25 21 53 21 22 1 22 1 2 15 -18 15 -18
16 15 45 19 16 38 29 42 30 11 0 58 77 58 93 0 18 37 94 50 102 5 3 10 17 10
29 0 43 28 96 53 97 12 1 29 3 37 4 8 1 22 3 30 4 26 2 -11 21 -42 21 -28 0
-39 22 -17 36 6 3 19 26 29 50 14 33 26 45 47 49 15 4 37 10 48 15 11 5 28 9
38 9 16 1 16 -1 1 -36z m1186 27 c0 -5 -4 -10 -10 -10 -5 0 -10 5 -10 10 0 6
5 10 10 10 6 0 10 -4 10 -10z m-820 -7 c0 -14 -19 -38 -25 -32 -8 8 5 39 16
39 5 0 9 -3 9 -7z m-798 -69 c-5 -37 -9 -41 -29 -28 -24 15 -26 29 -7 48 23
24 40 14 36 -20z m3153 -31 c-3 -16 -23 -50 -44 -78 -21 -27 -44 -61 -51 -75
-27 -52 -226 -230 -257 -230 -20 0 -15 21 7 27 11 3 20 10 20 15 0 5 16 16 35
24 26 11 33 18 28 32 -4 9 -11 20 -16 23 -5 4 12 21 37 39 25 19 46 37 46 42
0 4 7 8 15 8 14 0 17 4 19 32 1 7 -10 15 -24 18 -23 6 -22 7 20 28 25 12 69
44 99 72 61 57 76 62 66 23z m-3031 -109 c23 -9 20 -30 -10 -70 -31 -40 -59
-47 -49 -11 26 87 29 92 59 81z m3643 -105 c15 -6 82 -26 148 -45 124 -35 187
-69 109 -58 -21 3 -57 11 -79 18 -22 7 -83 21 -135 31 -107 21 -126 30 -109
51 14 17 29 17 66 3z m-237 -20 c-7 -11 -14 -18 -17 -15 -3 3 0 12 7 21 18 21
23 19 10 -6z m-67 -91 c-77 -102 -227 -232 -363 -315 -64 -39 -287 -154 -345
-179 -132 -55 -297 -113 -450 -158 -49 -15 -110 -33 -135 -41 -58 -19 -229
-63 -283 -74 -23 -5 -101 -23 -174 -40 -73 -17 -165 -35 -205 -40 -40 -6 -93
-15 -118 -20 -25 -5 -76 -11 -115 -15 -65 -5 -68 -5 -40 8 17 8 53 17 80 21
50 6 78 11 210 39 181 39 304 67 350 79 28 8 102 28 165 45 196 52 454 137
650 214 290 113 539 268 720 450 47 47 87 84 89 82 2 -2 -14 -27 -36 -56z
m-3179 -36 c-4 -20 -13 -44 -21 -54 -8 -9 -16 -25 -17 -35 -5 -30 -20 -10 -17
22 3 40 40 117 52 109 5 -3 7 -22 3 -42z m1696 23 c30 -15 44 -52 16 -42 -7 3
-19 0 -25 -6 -8 -8 -11 -5 -11 11 0 12 -4 22 -10 22 -5 0 -10 -5 -10 -10 0
-10 -41 -31 -49 -24 -5 4 42 63 52 63 4 1 21 -6 37 -14z m-1303 -60 c28 -9 19
-35 -13 -35 -13 0 -24 -4 -24 -10 0 -5 6 -10 14 -10 21 0 31 -21 15 -31 -8 -4
-24 -6 -36 -3 -16 4 -25 1 -29 -10 -6 -17 -44 -23 -44 -7 0 5 -9 7 -20 4 -25
-7 -26 12 -4 55 27 55 73 70 141 47z m-657 -8 c0 -2 -8 -19 -17 -38 -17 -32
-18 -32 -21 -11 -5 32 4 52 23 52 8 0 15 -2 15 -3z m2039 -25 c-31 -15 -69
-32 -85 -38 -16 -6 -81 -32 -144 -57 -124 -49 -180 -70 -365 -142 -66 -25
-131 -51 -145 -56 -93 -41 -521 -192 -526 -186 -2 2 40 25 93 50 265 124 315
147 319 147 3 0 30 12 60 26 56 26 246 99 299 114 17 5 68 23 115 40 154 58
264 93 340 110 101 23 104 23 39 -8z m369 5 c3 -12 -4 -20 -19 -24 -12 -4 -65
-29 -118 -56 -247 -128 -254 -131 -426 -198 -60 -23 -114 -45 -120 -49 -12 -9
-80 -32 -74 -25 3 2 34 23 68 45 65 42 78 65 19 35 -116 -60 -150 -75 -205
-89 -80 -21 -94 -20 -58 4 61 40 93 56 132 64 20 5 33 15 37 29 4 16 30 33 87
60 44 20 87 37 95 37 8 0 14 5 14 10 0 6 9 10 21 10 11 0 33 6 47 14 66 35
168 74 209 80 46 6 106 26 123 41 41 36 162 44 168 12z m-1547 -39 c-17 -29
-35 -73 -41 -98 -6 -25 -16 -63 -21 -85 -10 -37 -7 -92 7 -156 5 -22 2 -27
-18 -32 -12 -2 -52 -12 -86 -22 -60 -16 -65 -16 -83 1 -24 22 -24 41 1 54 11
6 20 17 20 25 0 8 11 22 25 31 13 9 27 24 30 35 4 10 18 25 32 33 17 8 22 16
14 20 -6 4 -11 20 -11 37 0 16 -4 29 -10 29 -5 0 -10 5 -10 10 0 6 7 10 16 10
11 0 15 6 11 20 -7 25 21 56 91 102 31 20 58 37 60 37 1 1 -11 -23 -27 -51z
m1874 22 c-3 -5 -13 -10 -21 -10 -8 0 -12 5 -9 10 3 6 13 10 21 10 8 0 12 -4
9 -10z m-85 -38 c0 -10 -22 -32 -32 -32 -13 0 -9 28 5 33 19 8 27 8 27 -1z
m-2425 -12 c3 -5 33 -12 66 -16 59 -7 87 -27 60 -43 -6 -4 -9 -15 -5 -25 6
-16 3 -17 -32 -11 -76 15 -178 14 -202 -1 -22 -14 -42 -12 -42 5 0 5 10 11 21
14 13 3 19 11 17 19 -9 23 10 58 32 58 18 0 20 -4 14 -22 -3 -13 -11 -24 -15
-26 -13 -5 -11 -22 2 -22 15 0 39 26 32 34 -4 3 -1 6 6 6 8 0 10 7 6 20 -5 15
-2 20 14 20 11 0 22 -4 26 -10z m2282 4 c-3 -3 -12 -4 -19 -1 -8 3 -5 6 6 6
11 1 17 -2 13 -5z m-2427 -41 c-1 -14 -27 -43 -38 -43 -9 0 -9 7 0 25 10 23
38 36 38 18z m383 -9 c42 -7 47 -18 15 -35 -16 -9 -23 -9 -26 0 -6 19 -32 12
-32 -9 0 -11 -7 -20 -15 -20 -16 0 -18 12 -9 48 7 24 11 25 67 16z m-434 -72
c-12 -20 -6 -51 34 -169 10 -30 8 -33 -39 -77 -64 -58 -78 -48 -80 57 0 39 -7
84 -14 100 -12 25 -11 30 10 52 13 14 29 25 35 25 7 0 22 9 35 20 27 24 36 20
19 -8z m151 -2 c0 -5 -4 -10 -10 -10 -5 0 -10 5 -10 10 0 6 5 10 10 10 6 0 10
-4 10 -10z m225 0 c21 0 19 -1 -79 -45 -41 -18 -61 -11 -54 21 4 20 38 32 83
28 17 -2 39 -3 50 -4z m-295 -28 c0 -9 7 -26 15 -36 16 -22 21 -86 6 -86 -13
0 -34 67 -27 85 3 8 -2 18 -10 23 -9 5 -12 15 -8 25 7 20 24 13 24 -11z m108
-45 c2 -19 -1 -27 -13 -27 -19 0 -30 24 -21 46 9 23 31 11 34 -19z m997 -157
c-3 -5 -12 -10 -19 -10 -8 0 -19 -7 -26 -15 -18 -21 13 -21 35 1 11 12 25 14
51 10 45 -9 37 -20 -29 -42 -28 -9 -57 -20 -62 -25 -6 -4 -37 -17 -70 -30 -33
-12 -64 -25 -70 -29 -5 -4 -25 -12 -42 -18 -38 -13 -46 3 -9 18 13 5 25 12 27
17 2 4 34 23 71 40 44 21 66 37 62 46 -3 8 8 19 28 29 39 18 62 22 53 8z
m-638 -26 c-3 -4 -14 -3 -24 0 -15 6 -15 8 -3 16 16 10 39 -4 27 -16z m533
-12 c0 -5 -17 -16 -37 -25 l-38 -17 28 25 c28 25 47 32 47 17z m2055 -112 c3
-5 1 -10 -4 -10 -6 0 -11 5 -11 10 0 6 2 10 4 10 3 0 8 -4 11 -10z m-2270 -30
c3 -6 -4 -10 -17 -10 -18 0 -20 2 -8 10 19 12 18 12 25 0z m405 -320 c-19 -13
-30 -13 -30 0 0 6 10 10 23 10 18 0 19 -2 7 -10z m-740 -130 c0 -5 -7 -10 -15
-10 -8 0 -15 5 -15 10 0 6 7 10 15 10 8 0 15 -4 15 -10z m5 -30 c3 -6 -1 -7
-9 -4 -18 7 -21 14 -7 14 6 0 13 -4 16 -10z"/>
<path d="M2852 3633 c2 -10 13 -22 25 -28 12 -5 24 -17 26 -27 3 -10 14 -18
25 -18 12 0 19 -6 18 -17 -1 -19 55 -61 93 -69 14 -4 31 -13 38 -21 6 -8 17
-12 23 -8 7 4 4 15 -10 32 -11 14 -20 31 -20 38 0 12 -29 29 -70 41 -14 3 -33
15 -43 25 -10 11 -27 19 -37 19 -15 0 -20 7 -20 25 0 20 -5 25 -26 25 -19 0
-25 -5 -22 -17z"/>
<path d="M3095 3550 c3 -5 11 -10 16 -10 6 0 7 5 4 10 -3 6 -11 10 -16 10 -6
0 -7 -4 -4 -10z"/>
<path d="M3133 3509 c10 -6 22 -22 27 -35 10 -26 30 -33 30 -11 0 16 -45 57
-63 57 -6 0 -4 -5 6 -11z"/>
<path d="M2609 3412 c-32 -4 -103 -72 -75 -72 9 0 29 6 44 14 60 31 126 36
243 21 62 -8 127 -15 143 -14 26 0 21 4 -27 19 -94 31 -230 44 -328 32z"/>
<path d="M1197 2983 c8 -3 11 -14 7 -29 -5 -18 -2 -24 10 -24 12 0 16 -10 16
-44 0 -25 -4 -47 -8 -50 -5 -3 -4 -31 1 -62 8 -40 7 -84 -1 -153 -14 -106 -12
-120 18 -139 29 -18 44 17 47 113 3 91 12 280 14 280 0 0 2 8 4 18 2 10 -5 23
-16 30 -10 6 -19 17 -19 24 0 21 -31 43 -58 42 -15 0 -21 -3 -15 -6z"/>
<path d="M1700 2775 c-7 -9 -10 -18 -7 -21 3 -3 10 4 17 15 13 25 8 27 -10 6z"/>
<path d="M1656 2712 c-8 -16 -22 -34 -30 -41 -9 -8 -16 -18 -16 -24 0 -15 42
26 63 62 10 17 13 31 8 31 -6 0 -17 -13 -25 -28z"/>
<path d="M1580 2609 c0 -5 5 -7 10 -4 6 3 10 8 10 11 0 2 -4 4 -10 4 -5 0 -10
-5 -10 -11z"/>
<path d="M1746 2574 c-9 -23 -2 -28 13 -10 7 8 8 17 3 20 -6 3 -13 -1 -16 -10z"/>
<path d="M1175 2333 c-4 -21 -11 -51 -16 -67 -5 -16 -9 -41 -9 -55 l0 -26 18
30 c11 18 18 54 20 93 2 69 -4 81 -13 25z"/>
<path d="M1141 2154 c0 -11 3 -14 6 -6 3 7 2 16 -1 19 -3 4 -6 -2 -5 -13z"/>
<path d="M2988 2883 c7 -3 16 -2 19 1 4 3 -2 6 -13 5 -11 0 -14 -3 -6 -6z"/>
<path d="M753 2821 c-17 -14 -41 -34 -54 -43 -29 -23 -21 -31 13 -14 20 10 29
11 38 2 9 -8 14 -8 17 2 4 10 9 8 19 -5 12 -16 15 -16 23 -3 8 12 13 12 23 2
6 -6 17 -12 22 -12 6 0 5 5 -2 12 -7 7 -12 20 -12 30 0 10 -7 18 -15 18 -8 0
-15 6 -15 14 0 25 -25 24 -57 -3z m47 0 c0 -12 -20 -25 -27 -18 -7 7 6 27 18
27 5 0 9 -4 9 -9z"/>
<path d="M740 2696 c0 -9 7 -12 20 -9 11 3 20 9 20 14 0 5 -9 9 -20 9 -11 0
-20 -6 -20 -14z"/>
<path d="M720 2619 c0 -7 -7 -17 -17 -24 -9 -7 -13 -17 -9 -23 10 -17 46 -15
46 3 0 8 -4 15 -9 15 -5 0 -7 9 -4 20 3 11 3 20 -1 20 -3 0 -6 -5 -6 -11z"/>
<path d="M690 2534 c0 -8 5 -12 10 -9 6 4 8 11 5 16 -9 14 -15 11 -15 -7z"/>
<path d="M3158 2173 c7 -3 16 -2 19 1 4 3 -2 6 -13 5 -11 0 -14 -3 -6 -6z"/>
<path d="M2182 1784 c4 -21 22 -23 26 -1 2 10 -3 17 -13 17 -10 0 -15 -6 -13
-16z"/>
<path d="M2282 1771 c-15 -16 -37 -34 -49 -40 -13 -6 -23 -16 -23 -22 0 -14
60 -1 81 18 12 10 28 12 55 7 33 -6 36 -5 31 10 -4 10 -7 21 -7 26 0 4 -14 13
-31 19 -28 9 -33 8 -57 -18z"/>
<path d="M1870 1570 c0 -5 7 -7 15 -4 8 4 15 8 15 10 0 2 -7 4 -15 4 -8 0 -15
-4 -15 -10z"/>
<path d="M1931 1501 c-9 -16 -8 -18 8 -14 12 3 17 11 14 19 -7 18 -10 18 -22
-5z"/>
<path d="M1581 2014 c0 -11 3 -14 6 -6 3 7 2 16 -1 19 -3 4 -6 -2 -5 -13z"/>
<path d="M1435 1920 c3 -5 8 -10 11 -10 2 0 4 5 4 10 0 6 -5 10 -11 10 -5 0
-7 -4 -4 -10z"/>
<path d="M1505 1901 c-8 -15 3 -31 21 -31 9 0 14 7 12 17 -4 20 -24 28 -33 14z"/>
<path d="M1020 2030 c0 -5 5 -10 10 -10 6 0 10 5 10 10 0 6 -4 10 -10 10 -5 0
-10 -4 -10 -10z"/>
<path d="M261 1784 c0 -11 3 -14 6 -6 3 7 2 16 -1 19 -3 4 -6 -2 -5 -13z"/>
<path d="M1805 1030 c3 -5 8 -10 11 -10 2 0 4 5 4 10 0 6 -5 10 -11 10 -5 0
-7 -4 -4 -10z"/>
<path d="M4455 2361 c-26 -6 -27 -8 -10 -13 38 -12 148 -13 152 -2 7 22 -75
30 -142 15z"/>
<path d="M4082 1940 c-18 -8 -50 -58 -40 -65 22 -14 84 -36 119 -41 24 -4 47
-12 51 -18 5 -7 8 -3 8 8 0 17 6 18 68 13 l67 -6 -24 19 c-18 16 -38 20 -92
20 -64 0 -93 10 -69 25 8 5 8 11 0 20 -7 8 -9 19 -5 25 8 12 -51 13 -83 0z"/>
<path d="M4455 1856 l-40 -13 30 -12 c17 -7 53 -15 80 -18 28 -3 56 -10 63
-16 9 -7 12 0 12 32 l0 41 -52 -1 c-29 0 -71 -6 -93 -13z"/>
<path d="M4255 1779 c14 -6 5 -7 -29 -3 -63 7 -60 -17 4 -28 50 -9 59 -5 57
22 -1 15 -8 20 -27 19 -23 0 -23 -1 -5 -10z"/>
<path d="M4380 1701 c-43 -7 -44 -8 -20 -18 14 -5 42 -13 63 -17 36 -7 38 -6
35 16 -3 26 -14 28 -78 19z"/>
<path d="M4180 1682 c0 -13 96 -35 120 -27 12 4 19 12 17 18 -4 14 -137 23
-137 9z"/>
<path d="M4566 1619 c5 -9 -14 -10 -70 -4 -71 6 -76 5 -76 -13 0 -13 11 -22
39 -30 47 -15 111 -16 111 -2 0 6 7 10 15 10 9 0 15 9 15 25 0 19 -5 25 -21
25 -12 0 -18 -4 -13 -11z"/>
<path d="M3797 1260 c-20 -13 -14 -30 12 -30 9 0 37 -10 62 -22 24 -12 52 -21
62 -19 9 1 29 -7 43 -18 20 -16 22 -21 10 -21 -9 0 -19 -7 -23 -16 -4 -12 -14
-14 -34 -10 -21 4 -29 2 -29 -9 0 -28 216 -21 234 7 8 13 14 12 47 -4 21 -10
51 -18 66 -18 24 0 133 -43 133 -52 0 -2 -10 -4 -22 -5 -122 -11 -154 -17
-161 -29 -4 -8 -21 -14 -37 -14 -17 0 -30 -4 -30 -10 0 -14 46 -13 69 2 14 9
23 8 42 -5 14 -11 43 -17 75 -17 61 0 84 -7 84 -25 0 -24 50 -46 118 -51 l67
-5 -27 23 c-37 32 -35 41 7 36 l35 -4 0 48 0 48 -44 12 c-25 6 -55 20 -68 30
l-23 18 30 -9 c17 -4 47 -6 68 -3 55 6 45 32 -18 48 -151 37 -160 37 -131 9
35 -35 6 -51 -55 -30 -23 8 -53 15 -68 15 -15 0 -45 9 -66 20 -22 11 -47 19
-55 18 -8 -1 -22 2 -30 7 -8 5 -51 27 -95 48 -65 32 -94 40 -155 43 -45 3 -82
0 -93 -6z m285 -97 c10 -12 7 -14 -17 -11 -18 2 -31 10 -33 20 -4 20 31 14 50
-9z"/>
<path d="M3690 1211 c0 -5 15 -14 33 -21 17 -6 40 -16 49 -21 23 -12 31 -11
23 1 -7 12 -79 50 -95 50 -5 0 -10 -4 -10 -9z"/>
<path d="M3580 1156 l-35 -13 32 -16 c18 -10 55 -17 86 -17 53 0 100 -21 144
-66 8 -8 28 -21 44 -29 28 -15 42 -42 17 -32 -24 9 -113 37 -193 61 -44 13
-104 33 -134 45 -30 11 -57 19 -59 17 -12 -12 13 -68 39 -87 16 -11 27 -24 24
-29 -3 -5 7 -17 22 -27 21 -14 49 -18 133 -19 58 -1 121 -4 141 -9 31 -6 40
-4 58 14 l22 22 79 -30 c44 -17 92 -31 108 -31 16 0 44 -5 61 -11 24 -9 35 -9
44 0 8 8 7 11 -3 11 -15 0 -102 40 -110 50 -3 4 -19 10 -37 13 -41 8 -195 83
-209 102 -6 8 -21 15 -32 15 -26 0 -63 16 -121 52 -49 31 -68 33 -121 14z"/>
<path d="M4010 890 c-45 -3 -88 -12 -108 -23 -27 -15 -41 -16 -83 -9 -27 5
-51 6 -54 3 -2 -4 39 -29 91 -56 52 -27 115 -69 139 -93 48 -47 252 -150 340
-171 28 -7 96 -34 152 -62 55 -27 104 -49 107 -49 3 0 6 29 6 65 l0 64 -42 12
c-59 17 -69 29 -26 29 20 0 40 -4 43 -10 14 -22 25 -8 25 33 0 43 -1 44 -53
65 -29 12 -56 22 -61 22 -4 0 -22 6 -39 14 -64 28 -78 27 -114 -9 -18 -18 -33
-40 -33 -49 0 -14 -7 -16 -37 -10 -21 4 -50 13 -65 20 -15 8 -33 14 -40 14 -8
0 -36 20 -63 45 l-50 45 97 0 c63 0 99 4 104 12 7 12 -51 68 -71 68 -5 0 -21
6 -35 13 -40 21 -51 22 -130 17z"/>
<path d="M3530 871 c0 -18 125 -63 183 -65 31 -2 57 -1 57 0 0 7 -86 46 -130
60 -50 15 -110 19 -110 5z"/>
<path d="M3020 590 c0 -5 8 -13 17 -19 10 -5 15 -13 11 -17 -16 -15 67 -72
202 -140 95 -48 101 -50 97 -31 -3 16 33 10 58 -11 11 -10 41 -28 67 -40 50
-26 88 -57 88 -72 0 -14 -21 -12 -70 5 -23 8 -58 15 -77 15 -30 0 -33 -2 -23
-19 13 -25 94 -49 190 -56 65 -4 78 -9 105 -35 17 -17 34 -30 39 -30 4 0 28
-10 54 -22 26 -12 50 -21 55 -20 12 3 8 -16 -5 -20 -15 -5 106 -78 129 -78 14
0 14 3 -3 18 -10 10 -28 21 -38 25 -23 9 -13 21 16 22 15 0 22 7 25 26 2 20
-3 29 -29 43 -78 41 -88 48 -88 57 0 5 6 9 13 9 18 0 177 -82 234 -120 96 -65
122 -74 231 -78 71 -3 102 -1 102 7 0 6 -11 11 -26 11 -18 0 -28 7 -35 28 -5
15 -22 36 -37 46 -16 10 -33 28 -38 38 -6 13 -39 30 -91 48 -74 25 -85 27 -98
14 -18 -18 -84 -31 -94 -18 -16 22 -106 77 -153 93 -42 14 -53 23 -52 39 1 29
-33 36 -40 8 -3 -11 -1 -22 4 -24 15 -6 12 -22 -5 -22 -8 0 -41 13 -73 30 -38
19 -75 30 -101 30 -39 0 -41 2 -41 29 0 16 4 31 9 33 5 2 -7 11 -27 21 -28 15
-33 15 -23 3 21 -25 5 -34 -41 -24 -47 11 -85 28 -208 92 -30 16 -80 42 -111
57 -31 16 -62 36 -69 44 -14 17 -50 21 -50 5z"/>
<path d="M3335 559 c-4 -6 -5 -12 -4 -14 11 -10 140 -65 154 -65 29 0 10 24
-29 38 -21 6 -49 21 -63 32 -29 22 -48 25 -58 9z"/>
<path d="M2390 543 c-41 -14 -80 -35 -80 -43 0 -17 148 -128 179 -135 19 -4
41 0 62 10 31 17 58 16 119 -1 22 -7 24 -6 11 9 -12 15 -11 17 3 17 9 0 19 -6
22 -13 2 -7 19 -14 36 -15 18 -2 52 -9 75 -17 24 -8 60 -15 81 -15 20 0 51 -9
67 -20 17 -11 42 -20 57 -20 14 0 93 -34 175 -76 81 -41 156 -77 167 -79 32
-7 44 -25 41 -59 -2 -29 2 -35 42 -59 47 -29 88 -35 96 -14 4 9 7 9 18 -1 7
-7 39 -12 76 -12 64 0 84 13 38 24 -14 4 -38 20 -53 37 -29 34 -62 57 -157
109 -76 42 -103 63 -129 101 -13 19 -45 41 -83 58 -74 32 -82 39 -64 51 10 6
3 14 -29 30 -36 18 -42 19 -36 5 4 -12 1 -15 -12 -11 -9 2 -33 8 -52 11 -31 6
-88 29 -142 56 -10 5 -47 9 -83 9 -56 0 -64 -2 -58 -17 5 -13 3 -15 -13 -9
-10 5 -59 14 -109 21 -55 8 -118 24 -162 44 -74 32 -78 33 -103 24z"/>
<path d="M3796 473 c-11 -11 -6 -23 8 -23 8 0 17 4 20 9 7 10 -19 23 -28 14z"/>
<path d="M3750 390 c0 -6 7 -10 15 -10 8 0 15 2 15 4 0 2 -7 6 -15 10 -8 3
-15 1 -15 -4z"/>
<path d="M3818 353 c7 -3 16 -2 19 1 4 3 -2 6 -13 5 -11 0 -14 -3 -6 -6z"/>
<path d="M3909 336 c6 -7 33 -21 59 -30 26 -10 59 -24 73 -31 14 -8 45 -17 68
-21 38 -6 43 -5 39 12 -3 17 -17 23 -98 41 -37 8 -80 27 -80 35 0 5 -16 8 -36
8 -30 0 -34 -3 -25 -14z"/>
<path d="M3458 303 c7 -3 16 -2 19 1 4 3 -2 6 -13 5 -11 0 -14 -3 -6 -6z"/>
<path d="M2080 270 c0 -5 10 -15 23 -21 12 -7 44 -32 72 -56 27 -23 57 -43 66
-43 9 0 29 -11 45 -25 16 -14 37 -28 47 -31 21 -7 23 -24 2 -24 -20 0 -19 -26
2 -34 9 -4 32 -9 52 -12 20 -3 38 -10 39 -15 5 -13 92 -11 92 2 0 7 12 9 36 5
l35 -7 -22 30 c-24 32 -96 79 -191 124 -68 32 -72 33 -65 7 6 -24 -5 -26 -23
-5 -7 8 -19 15 -27 15 -20 0 -104 49 -131 77 -23 23 -52 31 -52 13z"/>
<path d="M2508 176 c17 -20 47 -50 67 -67 19 -17 35 -39 35 -48 0 -9 7 -27 16
-39 14 -20 23 -22 105 -22 49 0 89 3 89 8 -1 8 -67 52 -81 52 -5 0 -9 4 -9 9
0 5 -15 12 -34 15 -33 6 -51 27 -47 53 2 16 -82 58 -133 67 l-39 8 31 -36z"/>
<path d="M990 186 c0 -9 5 -16 10 -16 6 0 10 4 10 9 0 6 -4 13 -10 16 -5 3
-10 -1 -10 -9z"/>
<path d="M1005 64 c19 -25 35 -50 35 -55 0 -5 11 -9 25 -9 14 0 25 4 25 9 0 4
-11 20 -25 35 -14 15 -25 31 -25 37 0 5 -9 9 -19 9 -11 0 -23 5 -26 10 -3 6
-10 10 -16 10 -5 0 7 -21 26 -46z"/>
<path d="M2295 80 c3 -5 8 -10 11 -10 2 0 4 5 4 10 0 6 -5 10 -11 10 -5 0 -7
-4 -4 -10z"/>
<path d="M3706 65 c10 -8 24 -15 30 -15 6 0 21 -11 34 -25 15 -16 34 -25 53
-25 l29 0 -24 30 c-17 22 -29 29 -48 26 -14 -3 -36 2 -50 9 -33 19 -49 19 -24
0z"/>
<path d="M2855 60 c-5 -7 4 -22 21 -36 23 -19 41 -23 89 -23 l60 0 -59 30
c-32 17 -64 28 -71 25 -7 -2 -17 0 -23 6 -6 6 -12 6 -17 -2z"/>
<path d="M3215 62 c-16 -2 -36 -8 -42 -14 -9 -7 -17 -7 -27 1 -12 10 -17 8
-26 -8 -6 -12 -17 -21 -25 -21 -8 0 -15 -4 -15 -10 0 -6 52 -10 135 -10 131 0
135 1 123 19 -21 34 -65 49 -123 43z"/>
<path d="M3990 15 c7 -8 24 -15 39 -15 l26 1 -25 14 c-35 20 -57 20 -40 0z"/>
</g>
</svg>
